<?xml version="1.0" encoding="UTF-8"?>
<svg id="Layer_2" data-name="Layer 2" xmlns="http://www.w3.org/2000/svg" viewBox="0 0 58.38 58.54">
  <defs>
    <style>
      .cls-1 {
        fill: #0070f0;
      }
    </style>
  </defs>
  <g id="Layer_1-2" data-name="Layer 1">
    <g>
      <path class="cls-1" d="M18.62,43.29l-.22,14.63c0,.37-.2,.56-.57,.57-3.42,.09-6.58,.06-9.49-.08C3.8,58.19,.06,54.81,.06,50.15,.08,36.7,.06,23.07,0,9.26-.02,3.96,3.29,0,8.72,0c14.45,.01,28.27,.02,41.46,.01C55.29,0,59.42,4.99,58.14,9.97c-.32,1.24-1.57,1.98-2.81,1.67-.06-.02-.13-.04-.19-.06-1.57-.55-3.17-1.14-4.8-1.79-6.68-2.64-14.54-2.58-21.3-.64-8.42,2.42-13.67,10.19-7.97,18.18,1.76,2.47,4.48,4.63,8.17,6.5,5.34,2.7,9.97,5.35,13.89,7.94,4.36,2.89,7.27,9.35,2.65,13.44-1.68,1.48-4.05,2.37-7.1,2.67-7.99,.77-15.01-1.74-17.74-9.63-.57-1.64-1.07-3.32-1.51-5.05-.51-1.99-.78-1.96-.81,.09Z"/>
      <path class="cls-1" d="M57.05,39.13c-6.4-5.23-13.92-8.46-21.08-12.77-2.24-1.35-4.74-3.41-5.33-6.06-.81-3.58,.4-6.15,3.62-7.71,3.69-1.78,7.39-1.81,11.08-.08,7.64,3.57,12.5,10.6,12.16,19.11-.09,2.4-.08,4.82,.04,7.27,0,.17-.13,.3-.29,.31-.07,0-.14-.02-.2-.07Z"/>
    </g>
  </g>
</svg>