<?xml version="1.0" encoding="UTF-8"?>
<svg id="Layer_1" data-name="Layer 1" xmlns="http://www.w3.org/2000/svg" viewBox="0 0 332.65 70.74">
  <defs>
    <style>
      .cls-1 {
        fill: #0070f0;
      }

      .cls-2 {
        fill: #0070f0;
      }
    </style>
  </defs>
  <g>
    <path class="cls-1" d="M18.62,43.29l-.22,14.63c0,.37-.2,.56-.57,.57-3.42,.09-6.58,.06-9.49-.08C3.8,58.19,.06,54.81,.06,50.15,.08,36.7,.06,23.07,0,9.26-.02,3.96,3.29,0,8.72,0c14.45,.01,28.27,.02,41.46,.01C55.29,0,59.42,4.99,58.14,9.97c-.32,1.24-1.57,1.98-2.81,1.67-.06-.02-.13-.04-.19-.06-1.57-.55-3.17-1.14-4.8-1.79-6.68-2.64-14.54-2.58-21.3-.64-8.42,2.42-13.67,10.19-7.97,18.18,1.76,2.47,4.48,4.63,8.17,6.5,5.34,2.7,9.97,5.35,13.89,7.94,4.36,2.89,7.27,9.35,2.65,13.44-1.68,1.48-4.05,2.37-7.1,2.67-7.99,.77-15.01-1.74-17.74-9.63-.57-1.64-1.07-3.32-1.51-5.05-.51-1.99-.78-1.96-.81,.09Z"/>
    <path class="cls-1" d="M57.05,39.13c-6.4-5.23-13.92-8.46-21.08-12.77-2.24-1.35-4.74-3.41-5.33-6.06-.81-3.58,.4-6.15,3.62-7.71,3.69-1.78,7.39-1.81,11.08-.08,7.64,3.57,12.5,10.6,12.16,19.11-.09,2.4-.08,4.82,.04,7.27,0,.17-.13,.3-.29,.31-.07,0-.14-.02-.2-.07Z"/>
  </g>
  <path class="cls-2" d="M77.05,21.9h5.36c.18,0,.27,.09,.26,.27v5.21c0,.18-.09,.27-.27,.27h-5.31c-.43,0-.65,.22-.65,.65,.05,6.59,.05,12.77,0,18.52-.03,3.73,2.02,5.01,6.13,3.85,.2-.06,.3,.02,.3,.23v5.71c0,.16-.07,.26-.23,.31-7.18,1.85-13.72,.19-13.92-8.26-.16-6.89-.18-13.7-.06-20.44,0-.38-.18-.57-.57-.57h-5c-.19,0-.29-.1-.29-.29l.02-5.18c0-.16,.13-.28,.28-.28h5.02c.33,0,.49-.16,.49-.49V13.41c0-.17,.09-.26,.26-.26h7.27c.23,0,.34,.11,.34,.34l-.03,7.82c-.01,.39,.19,.59,.59,.59Z"/>
  <path class="cls-2" d="M96.42,24.92c0,.57,.18,.63,.52,.18,2.43-3.16,5.55-4.39,9.35-3.7,.66,.12,.99,.52,.98,1.19l-.06,5.33c0,.84-.42,1.15-1.23,.94-3.69-.97-9.38,.82-9.33,5.55,.07,7.62,.09,15.01,.04,22.18,0,.17-.13,.31-.3,.31h-7.28c-.19,0-.29-.09-.29-.28V22.43c0-.35,.19-.53,.54-.53h6.28c.49,0,.74,.25,.75,.75l.03,2.27Z"/>
  <path class="cls-2" d="M121.2,42.47c.6,4.37,2.68,7.09,6.24,8.15,4.28,1.27,8.11,.18,11.49-3.28,.23-.24,.47-.25,.72-.02l3.35,3.12c.25,.23,.29,.61,.08,.88-2.73,3.65-6.41,5.69-11.04,6.1-14.41,1.29-20.97-10.1-18.33-22.87,2.15-10.38,11.23-15.87,21.23-12.32,7.85,2.79,9.48,11.56,9.05,19.11-.02,.37-.21,.56-.58,.56h-21.72c-.38,0-.54,.19-.49,.57Zm.53-6.28l14.34-.08c.15,0,.27-.12,.27-.27h0v-.13c-.02-4.59-3.33-8.3-7.39-8.28h-.18c-4.06,.02-7.33,3.76-7.31,8.35h0v.14c0,.15,.12,.27,.27,.27Z"/>
  <path class="cls-2" d="M170.79,54.14c-.04-.16-.2-.26-.37-.22-.05,.01-.1,.04-.13,.08-5.38,5.2-15.3,5.04-19.4-1.93-1.21-2.06-1.61-4.33-1.2-6.8,1.55-9.46,12.17-10.33,20.05-9.79,.41,.03,.63-.16,.67-.57,.26-2.75-.25-6.17-3.3-7.18-2.48-.81-4.68-.7-6.59,.33-1.37,.75-2.07,1.61-2.09,2.59-.01,.83-.44,1.25-1.27,1.25h-5.85c-.78,0-1.1-.39-.97-1.16,.37-2.09,1.29-3.82,2.77-5.17,3.86-3.54,8.58-4.95,14.16-4.23,7.42,.96,11.12,5.16,11.1,12.61-.01,5.53,0,10.84,.05,15.93,.02,2.16,.42,4.27,1.21,6.33,.17,.45,.02,.68-.47,.68h-7.09c-.39,.01-.64-.18-.73-.55l-.55-2.2Zm-13.28-7.92c.1,7.93,13.12,5.11,12.95-.27-.05-1.71-.06-3.37-.01-5,.01-.29-.22-.52-.5-.54-4.23-.23-12.51-.21-12.44,5.81Z"/>
  <path class="cls-2" d="M193.45,24.85c0,.17,.15,.31,.32,.3,.08,0,.16-.03,.21-.09,4.93-5.08,15.1-5.89,19.08,.95,.12,.2,.37,.27,.57,.15,.05-.03,.09-.07,.13-.11,2.44-3.29,5.93-4.92,10.47-4.89,9.35,.06,11.61,6.47,11.52,14.58-.07,7.12-.08,14.06-.03,20.82,0,.23-.11,.34-.34,.34h-7.25c-.16,0-.29-.13-.29-.29h0c.03-7.35,.02-14.99-.03-22.92-.03-3.69-1.93-5.68-5.71-5.98-2.54-.2-4.58,.71-6.13,2.74-.86,1.12-1.29,2.39-1.28,3.81,.04,7.73,.06,15.09,.06,22.09,0,.3-.25,.55-.55,.55h-6.8c-.36,0-.54-.18-.54-.54,.06-7.97,.04-15.57-.07-22.79-.04-2.8-1.26-4.59-3.67-5.37-3.69-1.19-6.67-.29-8.94,2.71-.23,.29-.34,.62-.34,.99v24.52c.01,.31-.15,.47-.47,.48h-6.98c-.28,.01-.5-.22-.5-.5V22.65c0-.5,.25-.75,.75-.75h5.99c.49,0,.75,.25,.76,.74l.06,2.21Z"/>
  <path class="cls-2" d="M264,54.16c-.5,.52-.99,.97-1.63,1.31-5.27,2.84-10.06,2.74-14.37-.29-7.71-5.43-8.04-19.08-4.31-26.67,3.74-7.59,12.94-9.54,19.79-4.75,.24,.17,.41,.4,.52,.67,.05,.16,.15,.29,.29,.38,.47,.3,.73,.17,.76-.39l.13-1.94c.03-.39,.24-.58,.63-.58h5.86c.49,0,.74,.25,.73,.74-.01,10.75-.02,21.58-.02,32.47,0,8.59-4.02,13.75-12.07,15.46-1.4,.3-3.83,.21-7.3-.27-3.53-.49-6.63-2.14-9.31-4.95-.24-.26-.26-.66-.04-.93l3.03-3.78c.27-.33,.54-.34,.82-.03,3.24,3.52,7.29,4.56,12.14,3.11,4.25-1.27,4.92-5.25,4.86-9.35-.01-.49-.18-.56-.51-.21Zm-13.53-21.57c-1.71,4.52-2.01,13.54,2.49,17.03,3.06,2.38,7.67,1.87,10.41-.96,.78-.8,1.16-1.76,1.15-2.88-.05-4.91-.06-9.41-.03-13.5,0-.42-.13-.84-.37-1.19-3.56-5.14-11.41-4.43-13.65,1.5Z"/>
  <path class="cls-2" d="M285.94,42.64c1.34,9.35,11.26,10.95,17.34,5.03,.47-.46,.95-.47,1.43-.02l2.86,2.66c.49,.45,.5,.91,.01,1.36-1.18,1.11-2.09,2.52-3.54,3.32-10.19,5.65-23.55,1.91-25.79-10.61-1.58-8.75,1.38-19.97,11.22-22.6,3.68-.99,7.26-.76,10.73,.68,7.44,3.07,8.91,11.54,8.5,18.9-.02,.36-.21,.54-.57,.54h-21.55c-.5,0-.71,.25-.64,.74Zm.57-6.45l14.22-.08c.17,0,.3-.13,.3-.3h0v-.2c-.02-4.54-3.34-8.2-7.4-8.18h-.1c-4.06,.02-7.34,3.72-7.32,8.25h0v.21c0,.17,.13,.3,.3,.3Z"/>
  <path class="cls-2" d="M322.54,24.9c2.3-2.95,5.32-4.13,9.06-3.55,.71,.11,1.06,.52,1.05,1.24v5.31c-.02,.91-.45,1.23-1.32,.95-3.14-.99-9.2,.81-9.19,5.05v22.7c0,.2-.1,.3-.3,.3h-7.29c-.2,0-.36-.16-.36-.36h0V22.75c0-.57,.28-.85,.85-.85h5.81c.64,0,.97,.32,.99,.96l.07,1.83c.03,.65,.24,.72,.63,.21Z"/>
</svg>